<?xml version="1.0" standalone="no"?>
<!DOCTYPE svg PUBLIC "-//W3C//DTD SVG 20010904//EN"
 "http://www.w3.org/TR/2001/REC-SVG-20010904/DTD/svg10.dtd">
<svg version="1.0" xmlns="http://www.w3.org/2000/svg"
 width="1152.000000pt" height="1152.000000pt" viewBox="0 0 1152.000000 1152.000000"
 preserveAspectRatio="xMidYMid meet">
<metadata>
Created by potrace 1.11, written by Peter Selinger 2001-2013
</metadata>
<g transform="translate(0.000000,1152.000000) scale(0.100000,-0.100000)"
fill="#000000" stroke="none">
<path d="M6330 10385 c-217 -13 -505 -39 -615 -55 -33 -5 -130 -18 -215 -30
-86 -11 -275 -42 -420 -70 -1215 -232 -2274 -707 -3165 -1419 -464 -371 -955
-885 -1291 -1351 -229 -318 -431 -707 -522 -1005 -105 -344 -105 -338 -92
-1245 25 -1724 26 -1775 50 -1884 110 -512 413 -925 935 -1273 608 -406 1483
-685 2500 -797 427 -48 948 -48 1325 0 1100 138 1770 452 2227 1046 191 247
337 501 548 948 156 329 213 439 280 540 248 373 632 675 1245 981 232 115
405 190 1060 456 199 81 442 202 550 274 128 84 307 264 389 389 102 156 173
321 213 495 30 133 33 397 14 1405 -22 1190 -25 1221 -114 1428 -79 183 -256
389 -455 529 -76 53 -109 69 -225 107 -538 173 -1460 373 -2037 441 -532 62
-714 79 -1065 95 -284 13 -852 10 -1120 -5z m990 -325 c634 -26 1233 -92 1810
-201 450 -84 890 -190 1244 -299 180 -56 224 -81 349 -200 181 -171 260 -342
259 -560 -1 -251 -123 -513 -341 -730 -164 -163 -298 -239 -741 -420 -705
-287 -1005 -426 -1325 -614 -490 -288 -838 -602 -1064 -965 -29 -45 -142 -264
-251 -485 -276 -558 -392 -754 -585 -983 -275 -327 -652 -555 -1160 -699 -229
-65 -603 -137 -860 -164 -279 -30 -902 -22 -1220 16 -170 20 -547 80 -655 104
-1106 247 -1852 646 -2212 1184 -164 245 -238 485 -238 770 0 530 284 1142
833 1796 739 878 1624 1513 2687 1927 623 242 1389 417 2107 482 507 46 926
59 1363 41z m3689 -2182 l-1 -93 -19 74 c-19 69 -19 75 -3 92 9 11 19 19 21
19 1 0 3 -42 2 -92z m-10498 -3292 c567 -599 1672 -1037 2939 -1165 552 -56
921 -53 1445 14 360 46 761 146 1064 266 404 161 770 426 1010 732 29 37 56
66 58 63 3 -3 0 -33 -6 -68 -39 -225 -97 -669 -125 -958 -34 -348 -39 -703
-11 -805 13 -46 -264 -365 -431 -497 -451 -356 -1130 -558 -2046 -609 -238
-13 -560 -2 -888 31 -1122 114 -2122 486 -2652 987 -210 199 -323 359 -411
583 -81 208 -86 252 -92 796 -3 247 -7 532 -11 633 l-6 185 39 -50 c22 -27 77
-89 124 -138z"/>
<path d="M5350 9459 c-69 -4 -192 -14 -275 -23 -713 -75 -1442 -349 -2035
-765 -729 -510 -1258 -1091 -1565 -1716 -183 -373 -272 -715 -282 -1080 -10
-384 52 -566 272 -794 258 -267 629 -490 930 -558 103 -24 322 -23 400 1 110
33 194 85 281 171 122 121 202 242 590 887 455 757 674 1086 971 1459 428 538
869 899 1292 1059 161 60 271 85 501 111 601 67 903 213 950 459 36 192 -154
435 -449 573 -202 95 -751 199 -1121 212 -293 11 -339 12 -460 4z"/>
<path d="M8274 9259 c-112 -19 -197 -76 -240 -161 -34 -67 -48 -190 -41 -368
17 -431 176 -729 437 -818 141 -49 268 -51 505 -12 474 79 815 247 906 445 30
65 26 159 -11 231 -61 123 -229 258 -470 379 -339 170 -643 275 -881 305 -95
11 -132 11 -205 -1z"/>
<path d="M6880 7800 c-483 -39 -1009 -293 -1580 -764 -125 -103 -322 -299
-400 -396 -191 -240 -308 -495 -356 -777 -25 -144 -15 -385 20 -518 79 -300
272 -527 519 -608 94 -30 276 -30 377 2 264 82 449 239 816 696 281 349 435
586 658 1013 58 112 123 229 143 260 52 80 142 166 252 241 207 141 303 284
304 451 1 193 -84 291 -307 356 -98 28 -297 59 -341 53 -5 -1 -53 -5 -105 -9z"/>
</g>
</svg>
