<svg xmlns="http://www.w3.org/2000/svg" viewBox="0 0 304.76 147.5"><defs><style>.cls-1{font-size:62px;font-family:Avenir-Black, Avenir;font-weight:800;}.cls-2{letter-spacing:0.02em;}.cls-3{letter-spacing:0em;}.cls-4,.cls-7{fill:#faf3dd;}.cls-5{fill:#b29759;opacity:0.3;}.cls-6{fill:none;}.cls-6,.cls-7{stroke:#000;stroke-miterlimit:10;stroke-width:8px;}.cls-8{fill:#e9b533;}.cls-9{fill:#e1487a;}.cls-10{fill:#45c7c1;}</style></defs><title>Asset 1</title><g id="Layer_2" data-name="Layer 2"><g id="Layer_5" data-name="Layer 5"><text class="cls-1" transform="translate(179.52 63.16)">fully<tspan x="0" y="56">fi</tspan><tspan class="cls-2" x="39.06" y="56">r</tspan><tspan class="cls-3" x="65.41" y="56">m</tspan></text></g><g id="Layer_2-2" data-name="Layer 2"><path class="cls-4" d="M161.92,25.39l.48,29.12h0c.65,6.84-4.31,13.71-10.22,16.83-9.41,5-33.36,10.55-41.42,27.14s-12.05,29-40.76,32.33c-21.87,2.57-67-6.25-65.45-33.58h0l-.37-26.8"/><path class="cls-5" d="M105.54,73.06c-2.09,4.89-8.06,42.67-3.82,40.82,6.78-2.95,7.27-12.93,13-22.52,24.74-13,36.49-20,46.25-30,4-4-2.3-26.42-2.3-26.42L115.1,59.33S110,62.68,105.54,73.06Z"/><path class="cls-6" d="M161.92,25.39l.48,29.12h0c.65,6.84-4.31,13.71-10.22,16.83-9.41,5-33.36,10.55-41.42,27.14s-12.05,29-40.76,32.33c-21.87,2.57-67-6.25-65.45-33.58h0l-.37-26.8"/><path class="cls-7" d="M4.45,62.84c-5.61,29.94,42.3,39.58,65,36.91C98.2,96.37,102.18,84,110.24,67.41s32-22.18,41.42-27.13S168,20.87,154,12.2c0,0-83.2-29.25-132.59,22.71C11.09,45.72,5.93,55,4.45,62.84"/></g><g id="Layer_3" data-name="Layer 3"><path class="cls-8" d="M98.22,17.35S70.57,8,43.56,27.94,17.3,69.48,20.3,74.8s18.05,17.09,25.92,8.4S69.92,35,93.12,33.11,106.86,19.09,98.22,17.35Z"/><path class="cls-9" d="M107.29,39.87s-11.89-5.75-31.63,12S72.47,95,87.91,77.46s12.31-22.15,18.83-26.26S112.15,40.75,107.29,39.87Z"/><path class="cls-10" d="M116.66,22.86s-1.79,16.57,11.3,15,23.18-8.38,6.76-15.95S116.71,19.56,116.66,22.86Z"/></g></g></svg>