<svg xmlns="http://www.w3.org/2000/svg" viewBox="0 0 166.45 135.23"><defs><style>.e7458a7b-973d-41a8-885d-9d1030b496e6,.eba0c044-9c8d-4b8a-bd9d-9cb46990cf31{fill:#faf3dd;}.e07ccda4-4c66-49b7-a2fc-73bc09c24433{fill:#b29759;opacity:0.3;}.f5fdf82f-0e9a-4b62-9704-139afdc215f8{fill:none;}.eba0c044-9c8d-4b8a-bd9d-9cb46990cf31,.f5fdf82f-0e9a-4b62-9704-139afdc215f8{stroke:#000;stroke-miterlimit:10;stroke-width:8px;}.acffd068-4713-44d0-bceb-1fe0e7d54e64{fill:#e9b533;}.e048bbe5-3488-4fcb-87e0-0f7a4af5a9ce{fill:#e1487a;}.b0f32055-5e54-4f1e-ae5f-28f67525b09b{fill:#45c7c1;}</style></defs><title>Asset 15</title><g id="aedef2fc-fbc6-4286-b149-682328a65240" data-name="Layer 2"><g id="bef2ccb3-b823-4f49-a71a-3b1c24cb7871" data-name="Layer 2"><path class="e7458a7b-973d-41a8-885d-9d1030b496e6" d="M161.92,25.39l.48,29.12h0c.65,6.84-4.31,13.71-10.22,16.83-9.41,5-33.36,10.55-41.42,27.14s-12.05,29-40.76,32.33c-21.87,2.57-67-6.25-65.45-33.58h0l-.37-26.8"/><path class="e07ccda4-4c66-49b7-a2fc-73bc09c24433" d="M105.54,73.06c-2.09,4.89-8.06,42.67-3.82,40.82,6.78-2.95,7.27-12.93,13-22.52,24.74-13,36.49-20,46.25-30,4-4-2.3-26.42-2.3-26.42L115.1,59.33S110,62.68,105.54,73.06Z"/><path class="f5fdf82f-0e9a-4b62-9704-139afdc215f8" d="M161.92,25.39l.48,29.12h0c.65,6.84-4.31,13.71-10.22,16.83-9.41,5-33.36,10.55-41.42,27.14s-12.05,29-40.76,32.33c-21.87,2.57-67-6.25-65.45-33.58h0l-.37-26.8"/><path class="eba0c044-9c8d-4b8a-bd9d-9cb46990cf31" d="M4.45,62.84c-5.61,29.94,42.3,39.58,65,36.91C98.2,96.37,102.18,84,110.24,67.41s32-22.18,41.42-27.13S168,20.87,154,12.2c0,0-83.2-29.25-132.59,22.71C11.09,45.72,5.93,55,4.45,62.84"/></g><g id="b3bd6e54-f67a-4a47-8414-d01db7dad94e" data-name="Layer 3"><path class="acffd068-4713-44d0-bceb-1fe0e7d54e64" d="M98.22,17.35S70.57,8,43.56,27.94,17.3,69.48,20.3,74.8s18.05,17.09,25.92,8.4S69.92,35,93.12,33.11,106.86,19.09,98.22,17.35Z"/><path class="e048bbe5-3488-4fcb-87e0-0f7a4af5a9ce" d="M107.29,39.87s-11.89-5.75-31.63,12S72.47,95,87.91,77.46s12.31-22.15,18.83-26.26S112.15,40.75,107.29,39.87Z"/><path class="b0f32055-5e54-4f1e-ae5f-28f67525b09b" d="M116.66,22.86s-1.79,16.57,11.3,15,23.18-8.38,6.76-15.95S116.71,19.56,116.66,22.86Z"/></g></g></svg>